# xmcd
#
# Track frame offsets:
#	150
#	22157
#	35454
#	60363
#	88172
#	104690
#	128012
#	151779
#	168810
#	203353
#	221398
#	238502
#
# Disc length: 3437 seconds
#
# Revision: 2679044006
# Processed by: cddbd v1.5.2PL0 Copyright (c) Steve Scherf et al.
# Submitted via: EZCDAudioConverter 8.0.2.1
#
DISCID=910d6b0c
DTITLE=Hương Lan - Còn Thương Rau Đắng mọc Sau Hè
DYEAR=1993
DGENRE=Country
TTITLE0=Hương Lan - Còn Thương Rau Đắng mọc Sau Hè
TTITLE1=Hương Lan - Rừng xưa
TTITLE2=Hương Lan - Chỉ hai đứa mình
TTITLE3=Hương Lan, Chí Tâm - Đò dọc
TTITLE4=Hương Lan - Chàng là ai
TTITLE5=Hương Lan - Mười năm tình cũ
TTITLE6=Hương Lan - Bà mẹ Trị Thiên
TTITLE7=Hương Lan - Mười đầu ngón tay
TTITLE8=Hương Lan, Duy Quang - Ngại ngùng
TTITLE9=Hương Lan - Ở lại
TTITLE10=Hương Lan - Tình yêu tuyệt diệu
TTITLE11=Hương Lan - Tình yêu tuyệt vời
EXTD=
EXTT0=
EXTT1=
EXTT2=
EXTT3=
EXTT4=
EXTT5=
EXTT6=
EXTT7=
EXTT8=
EXTT9=
EXTT10=
EXTT11=
PLAYORDER=
